<svg width="16" height="16" viewBox="0 0 16 16" fill="none" xmlns="http://www.w3.org/2000/svg">
<circle cx="7.99995" cy="7.99995" r="7.99995" fill="#FFA438"/>
<path fill-rule="evenodd" clip-rule="evenodd" d="M7.01758 8.53079C7.01758 9.08307 7.46529 9.53078 8.01757 9.53078C8.56985 9.53078 9.01756 9.08307 9.01756 8.53079L9.01756 4.30859C9.01756 3.75631 8.56985 3.30859 8.01757 3.30859C7.46529 3.30859 7.01758 3.75631 7.01758 4.30859V8.53079ZM8.01757 12.8641C8.56985 12.8641 9.01757 12.4164 9.01757 11.8641C9.01757 11.3119 8.56985 10.8642 8.01757 10.8642C7.46529 10.8642 7.01758 11.3119 7.01758 11.8641C7.01758 12.4164 7.46529 12.8641 8.01757 12.8641Z" fill="white"/>
</svg>
