<svg width="48" height="45" viewBox="0 0 48 45" fill="none" xmlns="http://www.w3.org/2000/svg">
<ellipse cx="22.7356" cy="22.6831" rx="22.3235" ry="22" fill="#E7EEF6"/>
<path d="M40.9501 32.5797V14.5007C40.9501 13.696 40.2874 13.0376 39.4775 13.0376H15.9619C15.1519 13.0376 14.4893 13.696 14.4893 14.5007V32.5888H40.9501V32.5797Z" fill="#7991BE"/>
<path d="M43.4806 13.0376H38.98C39.7899 13.0376 40.4526 13.696 40.4526 14.5007V32.5888H44.9532V14.5007C44.9532 13.6869 44.2997 13.0376 43.4806 13.0376Z" fill="#606483"/>
<path d="M40.9494 15.8633H18.3081C17.7651 15.8633 17.3325 16.2931 17.3325 16.8326V31.6926H40.9494V15.8633Z" fill="white"/>
<path d="M42.1093 31.6835V16.8326C42.1093 16.2931 41.6675 15.8633 41.1337 15.8633H40.4526V31.6926H42.1093V31.6835Z" fill="#F3F6F8"/>
<path d="M43.1494 33.4028V31.6836H12.9426C12.4548 31.6836 12.0591 32.0768 12.0591 32.5615C12.0591 34.299 13.4765 35.7072 15.2252 35.7072H40.83C42.1094 35.7164 43.1494 34.683 43.1494 33.4028Z" fill="#7991BE"/>
<path d="M46.4994 31.6836H42.8823V33.4028C42.8823 34.6739 41.8423 35.7072 40.563 35.7072H44.2169C45.9656 35.7072 47.383 34.299 47.383 32.5615C47.383 32.0768 46.9872 31.6836 46.4994 31.6836Z" fill="#606483"/>
<path d="M24.3369 31.6836C24.3369 32.7992 25.2481 33.6954 26.3617 33.6954H33.0713C34.1941 33.6954 35.0961 32.7901 35.0961 31.6836H24.3369Z" fill="#606483"/>
<path d="M32.3193 16.9058H30.3424C29.3631 16.9058 28.5669 17.6905 28.5669 18.6556V20.3422L28.9238 20.5948H32.4749V17.1673L32.3193 16.9058Z" fill="#F9CC5D"/>
<path d="M36.2091 26.0152L33.6739 25.2847H29.711L27.1759 26.0152C26.2698 26.2768 25.6475 27.0976 25.6475 28.0356V31.5893H37.7466V28.0356C37.7375 27.0976 37.1151 26.2768 36.2091 26.0152Z" fill="#E7EEF6"/>
<path d="M36.2089 26.0152L33.6738 25.2847H31.7061L31.7244 26.2768L33.7104 26.8811C34.6164 27.1427 35.2388 27.9635 35.2388 28.9015V31.5983H37.7373V28.0446C37.7373 27.0976 37.115 26.2768 36.2089 26.0152Z" fill="#D8DEEB"/>
<path d="M32.081 27.6934H31.3123L30.6167 31.5718V31.5808H32.7766L32.081 27.6934Z" fill="#606483"/>
<path d="M33.0889 25.4473V23.2466H30.3066V25.4473C30.3066 26.205 31.6978 26.2681 31.6978 26.2681C31.6978 26.2681 33.0889 26.205 33.0889 25.4473Z" fill="#FFDDCE"/>
<path d="M36.0262 31.5805V30.3628C36.0262 30.2005 35.898 30.0742 35.7333 30.0742C35.5686 30.0742 35.4404 30.2005 35.4404 30.3628V31.5805H36.0262Z" fill="#B9CBEA"/>
<path d="M34.0491 17.9247H34.0216C33.8752 17.9247 33.7654 17.8075 33.7654 17.6722C33.7654 17.2573 33.4176 16.9146 32.9966 16.9146H32.3193V20.6035H34.4609L34.8179 20.351V18.6914C34.8179 18.2675 34.4701 17.9247 34.0491 17.9247Z" fill="#F7BD3C"/>
<path d="M29.7566 25.1316L29.3631 25.303C29.1343 25.4022 29.0793 25.6999 29.2532 25.8712L30.3515 26.9536C30.4888 27.0889 30.7084 27.0979 30.8549 26.9716L31.7152 26.2591L30.2508 25.1767C30.1135 25.0865 29.9213 25.0595 29.7566 25.1316Z" fill="#B9CBEA"/>
<path d="M33.1243 25.1947L31.7148 26.268L32.5202 26.9535C32.6667 27.0798 32.8863 27.0708 33.0328 26.9355L34.131 25.8802C34.3141 25.7088 34.2591 25.4112 34.0303 25.312L33.6276 25.1316C33.4629 25.0594 33.2707 25.0865 33.1243 25.1947Z" fill="#B9CBEA"/>
<path d="M31.7242 26.2681L30.873 26.9626L31.3032 27.6932H32.072L32.5021 26.9265L31.7242 26.2681Z" fill="#606483"/>
<path d="M27.9539 31.5805V30.3628C27.9539 30.2005 27.8258 30.0742 27.661 30.0742C27.4963 30.0742 27.3682 30.2005 27.3682 30.3628V31.5805H27.9539Z" fill="#B9CBEA"/>
<path d="M32.4749 21.8756V19.1336C31.7793 19.2599 31.0563 19.2148 30.379 18.9983C30.0129 18.8811 29.6377 19.1517 29.6377 19.5305V19.8191C29.6377 20.1077 29.3997 20.3513 29.0977 20.3513H28.5669V21.2171C28.5669 21.4336 28.7499 21.614 28.9696 21.614C29.0428 21.614 29.0977 21.6681 29.0977 21.7403C29.1709 22.9128 30.0495 23.8689 31.1936 24.0854C31.9532 23.6163 32.4566 22.8046 32.4749 21.8756Z" fill="#FFDDCE"/>
<path d="M34.287 20.342C33.9941 20.342 33.747 20.1075 33.747 19.8098V19.5212C33.747 19.1424 33.3718 18.8718 33.0057 18.9891C32.7769 19.0612 32.5481 19.1153 32.3193 19.1514V21.8302C32.3009 22.7682 31.7701 23.589 30.9922 24.022C31.2118 24.0851 31.4498 24.1122 31.6878 24.1122C33.0606 24.1122 34.1863 23.0569 34.2778 21.722C34.2778 21.6498 34.3419 21.5957 34.4059 21.5957C34.6256 21.5957 34.8086 21.4153 34.8086 21.1989V20.342H34.287Z" fill="#FFCBBE"/>
<path d="M31.4238 11.0991H30.2549V13.0286H31.4238V11.0991Z" fill="#606483"/>
<path d="M33.4393 9.92875C33.4393 11.3553 32.2704 12.5167 30.8346 12.5167C29.3989 12.5167 28.23 11.3553 28.23 9.92875C28.23 8.50219 29.3989 7.34082 30.8346 7.34082C32.2796 7.34082 33.4393 8.49304 33.4393 9.92875Z" fill="#B6C2DA"/>
<path d="M32.0494 9.92828C32.0494 10.5958 31.5064 11.1354 30.8345 11.1354C30.1627 11.1354 29.6196 10.5958 29.6196 9.92828C29.6196 9.26072 30.1627 8.72119 30.8345 8.72119C31.5064 8.72119 32.0494 9.26072 32.0494 9.92828Z" fill="#606483"/>
<path d="M31.4146 9.92865C31.4146 10.2487 31.1569 10.5048 30.8347 10.5048C30.5126 10.5048 30.2549 10.2487 30.2549 9.92865C30.2549 9.60859 30.5126 9.35254 30.8347 9.35254C31.1569 9.35254 31.4146 9.60859 31.4146 9.92865Z" fill="#1E1D2E"/>
<path opacity="0.7" d="M31.4874 9.48962C31.4874 9.6085 31.3955 9.69995 31.2762 9.69995C31.1568 9.69995 31.0649 9.6085 31.0649 9.48962C31.0649 9.37074 31.1568 9.2793 31.2762 9.2793C31.3955 9.2793 31.4874 9.37074 31.4874 9.48962Z" fill="white"/>
<path opacity="0.1" d="M33.4391 9.92875C33.4391 8.50219 32.2703 7.34082 30.8345 7.34082V12.5167C32.2795 12.5167 33.4391 11.3553 33.4391 9.92875Z" fill="#D8DEEB"/>
<path d="M18.258 8.61621H14.0369C12.2326 8.61621 10.7676 10.06 10.7676 11.8381V14.9459L13.5155 20.0194L18.6139 20.6557V9.52162L18.258 8.61621Z" fill="#CB7B4F"/>
<path d="M20.883 10.4923H20.8333C20.5685 10.4923 20.3533 10.2802 20.3533 10.0192C20.3533 9.24428 19.716 8.61621 18.9297 8.61621H18.251V20.5904L20.3036 19.7013L22.29 14.9459V11.8871C22.2983 11.1122 21.661 10.4923 20.883 10.4923Z" fill="#B65D37"/>
<path d="M25.5497 29.7178C25.5497 28.1925 24.5482 26.8466 23.075 26.3898L19.0864 24.4485L17.5635 23.8612L16.5371 23.8286L11.778 23.9917L7.42443 25.3539C5.94289 25.8107 4.94141 27.1647 4.94141 28.6819V40.4691C4.94141 41.1787 5.52078 41.7497 6.24086 41.7497H25.5497V29.7178Z" fill="#FFA04F"/>
<path d="M25.6495 25.354L21.2959 23.9918L17.2485 23.8531L15.5684 23.5269L22.5684 26.6428C24.0417 27.0995 25.0432 28.4536 25.0432 29.9707V41.7756H26.8248C27.5448 41.7756 28.1242 41.2047 28.1242 40.495V28.682C28.1242 27.1648 27.1227 25.8108 25.6495 25.354Z" fill="#EF8B35"/>
<path d="M19.2023 23.7388V20.4189H13.8638V23.7388L16.5289 23.8285L19.2023 23.7388Z" fill="#FFCBBE"/>
<path d="M19.8803 19.4891C18.9119 19.4891 14.2686 19.7012 13.8796 19.4157H13.9127C13.2341 19.1955 11.7525 14.9458 11.7525 14.9458H10.7676V16.5364C10.7676 16.9442 11.0986 17.2705 11.5125 17.2705C11.6449 17.2705 11.7525 17.3684 11.7608 17.4989C11.8932 19.6115 13.441 21.3489 15.4771 21.7975C17.2897 21.1042 19.8803 19.4891 19.8803 19.4891Z" fill="#FFCBBE"/>
<path d="M21.321 14.9458C21.321 14.9458 20.4189 19.3831 19.3925 19.5218C19.136 19.5544 17.3482 19.6441 17.1164 19.7012C17.1164 19.7012 16.8764 21.0552 15.0059 21.6752C15.4859 21.8383 15.9991 21.9199 16.5371 21.9199C19.078 21.9199 21.1555 19.9704 21.3128 17.507C21.321 17.3765 21.4286 17.2786 21.5611 17.2786C21.9749 17.2786 22.306 16.9524 22.306 16.5445V14.9458H21.321Z" fill="#FFCBBE"/>
<path d="M16.5286 25.7618L15.105 26.969C14.7574 27.2708 14.2194 27.2137 13.938 26.8467L11.7612 23.9836L12.5475 23.3066C12.9283 22.9803 13.5076 22.9885 13.8801 23.3311L16.5286 25.7618Z" fill="#FFA04F"/>
<path d="M16.6362 22.0181L16.4707 23.6413C16.4873 24.0981 17.1246 24.4488 17.5881 24.3999L21.1967 24.0246L21.1636 22.9969C21.1471 22.4912 20.7498 22.0833 20.2449 22.0507L16.6362 22.0181Z" fill="#EF8B35"/>
<path d="M13.0358 22.0424C12.5309 22.0832 12.1254 22.491 12.1171 22.9886L12.084 24.0163L15.6927 24.3916C16.1561 24.4405 16.661 24.0898 16.6776 23.633L16.6445 22.0098L13.0358 22.0424Z" fill="#FFA04F"/>
<path d="M22.5156 34.2965C22.5156 34.0435 22.7207 33.8384 22.9738 33.8384C23.2268 33.8384 23.4319 34.0435 23.4319 34.2965V41.7496H22.5156V34.2965Z" fill="#EF8B35"/>
<path d="M8.84229 34.3224C8.84229 34.0694 9.04741 33.8643 9.30045 33.8643C9.55348 33.8643 9.75861 34.0694 9.75861 34.3224V41.7755H8.84229V34.3224Z" fill="#EF8B35"/>
<path d="M39.9749 19.3593C40.5359 19.3593 40.9908 18.911 40.9908 18.3581C40.9908 17.8052 40.5359 17.3569 39.9749 17.3569C39.4138 17.3569 38.959 17.8052 38.959 18.3581C38.959 18.911 39.4138 19.3593 39.9749 19.3593Z" fill="#DD636E"/>
</svg>
