<svg width="20" height="20" viewBox="0 0 20 20" fill="none" xmlns="http://www.w3.org/2000/svg">
<path d="M17.923 5.7143H13.9944V2.85716C13.9944 2.47828 13.8564 2.11492 13.6109 1.84701C13.3653 1.5791 13.0322 1.42859 12.6849 1.42859H7.44679C7.09948 1.42859 6.7664 1.5791 6.52082 1.84701C6.27523 2.11492 6.13727 2.47828 6.13727 2.85716V5.7143H2.20869C1.86139 5.7143 1.5283 5.86481 1.28272 6.13272C1.03714 6.40063 0.89917 6.76399 0.89917 7.14287V17.1429C0.89917 17.5218 1.03714 17.8851 1.28272 18.153C1.5283 18.4209 1.86139 18.5714 2.20869 18.5714H17.923C18.2703 18.5714 18.6034 18.4209 18.849 18.153C19.0945 17.8851 19.2325 17.5218 19.2325 17.1429V7.14287C19.2325 6.76399 19.0945 6.40063 18.849 6.13272C18.6034 5.86481 18.2703 5.7143 17.923 5.7143ZM7.44679 2.85716H12.6849V5.7143H7.44679V2.85716ZM2.20869 17.1429V7.14287H17.923V17.1429H2.20869Z" fill="#606483" stroke="#606483"/>
</svg>
