<svg width="24" height="24" viewBox="0 0 24 24" fill="none" xmlns="http://www.w3.org/2000/svg">
<path d="M0 4C0 1.79086 1.79086 0 4 0H20C22.2091 0 24 1.79086 24 4V20C24 22.2091 22.2091 24 20 24H4C1.79086 24 0 22.2091 0 20V4Z" fill="#FFA438"/>
<path d="M10.9359 13.3989H16.4252C16.8429 13.3989 17.2434 13.5648 17.5388 13.8603C17.8341 14.1557 18 14.5564 18 14.9742V15.6078C18 15.9862 17.9183 16.36 17.7604 16.7038C17.6025 17.0476 17.3722 17.3532 17.0852 17.5997C15.9892 18.5407 14.4214 19 12.3987 19H12.2734C12.3788 18.7874 12.4203 18.5487 12.3929 18.313C12.3654 18.0772 12.2702 17.8545 12.1187 17.6718L12.041 17.5878L10.4802 16.0307C10.9421 15.236 11.1036 14.3019 10.9352 13.3982L10.9359 13.3989ZM7.14939 10.9484C7.74759 10.9485 8.33337 11.1191 8.83821 11.4401C9.34305 11.7611 9.74607 12.2192 10.0001 12.761C10.2542 13.3027 10.3487 13.9057 10.2727 14.4992C10.1968 15.0928 9.95337 15.6524 9.57106 16.1126L11.5469 18.0828C11.6413 18.1763 11.6968 18.3021 11.7022 18.4348C11.7075 18.5676 11.6624 18.6974 11.5758 18.7982C11.4893 18.899 11.3678 18.9632 11.2358 18.9779C11.1037 18.9926 10.9711 18.9567 10.8645 18.8775L10.805 18.8264L8.77317 16.7988C8.35716 17.0491 7.88892 17.1999 7.40503 17.2393C6.92114 17.2787 6.4347 17.2056 5.9837 17.0258C5.53269 16.8461 5.12934 16.5644 4.80514 16.2029C4.48095 15.8414 4.24468 15.4098 4.1148 14.9419C3.98492 14.4739 3.96494 13.9823 4.05642 13.5053C4.14791 13.0284 4.34837 12.579 4.64217 12.1924C4.93597 11.8058 5.31514 11.4923 5.75006 11.2765C6.18499 11.0607 6.6639 10.9484 7.14939 10.9484ZM7.14939 11.9986C6.59252 11.9986 6.05845 12.2199 5.66468 12.6138C5.2709 13.0077 5.04968 13.542 5.04968 14.099C5.04968 14.6561 5.2709 15.1903 5.66468 15.5842C6.05845 15.9781 6.59252 16.1994 7.14939 16.1994C7.70627 16.1994 8.24034 15.9781 8.63411 15.5842C9.02789 15.1903 9.24911 14.6561 9.24911 14.099C9.24911 13.542 9.02789 13.0077 8.63411 12.6138C8.24034 12.2199 7.70627 11.9986 7.14939 11.9986ZM12.3987 5C13.3268 5 14.2169 5.36882 14.8732 6.02533C15.5295 6.68184 15.8982 7.57226 15.8982 8.5007C15.8982 9.42914 15.5295 10.3196 14.8732 10.9761C14.2169 11.6326 13.3268 12.0014 12.3987 12.0014C11.4705 12.0014 10.5804 11.6326 9.92414 10.9761C9.26785 10.3196 8.89915 9.42914 8.89915 8.5007C8.89915 7.57226 9.26785 6.68184 9.92414 6.02533C10.5804 5.36882 11.4705 5 12.3987 5Z" fill="white"/>
</svg>
