<svg width="24" height="24" viewBox="0 0 24 24" fill="none" xmlns="http://www.w3.org/2000/svg">
<path d="M0 4C0 1.79086 1.79086 0 4 0H20C22.2091 0 24 1.79086 24 4V20C24 22.2091 22.2091 24 20 24H4C1.79086 24 0 22.2091 0 20V4Z" fill="#FF5A50"/>
<path d="M19.6464 10.938V11.3628C19.6464 11.7148 19.3611 12 19.0092 12H18.7968L18.1035 16.8531C18.0138 17.4809 17.4761 17.9473 16.8419 17.9473H7.15801C6.52381 17.9473 5.98611 17.4809 5.8964 16.8531L5.20312 12H4.99072C4.6388 12 4.35352 11.7148 4.35352 11.3628V10.938C4.35352 10.5861 4.6388 10.3008 4.99072 10.3008H6.77863L9.61366 6.40271C9.88965 6.02326 10.421 5.93933 10.8005 6.21532C11.18 6.49131 11.2639 7.02266 10.9879 7.40214L8.87971 10.3008H15.1202L13.0121 7.40212C12.7361 7.02266 12.82 6.49129 13.1995 6.2153C13.5789 5.93931 14.1103 6.02321 14.3863 6.40269L17.2213 10.3008H19.0092C19.3611 10.3008 19.6464 10.5861 19.6464 10.938ZM12.6372 15.6109V12.6373C12.6372 12.2853 12.3519 12 12 12C11.648 12 11.3628 12.2853 11.3628 12.6373V15.6109C11.3628 15.9628 11.648 16.2481 12 16.2481C12.3519 16.2481 12.6372 15.9628 12.6372 15.6109ZM15.6108 15.6109V12.6373C15.6108 12.2853 15.3255 12 14.9736 12C14.6217 12 14.3364 12.2853 14.3364 12.6373V15.6109C14.3364 15.9628 14.6217 16.2481 14.9736 16.2481C15.3255 16.2481 15.6108 15.9628 15.6108 15.6109ZM9.66355 15.6109V12.6373C9.66355 12.2853 9.37827 12 9.02634 12C8.67442 12 8.38914 12.2853 8.38914 12.6373V15.6109C8.38914 15.9628 8.67442 16.2481 9.02634 16.2481C9.37827 16.2481 9.66355 15.9628 9.66355 15.6109Z" fill="white"/>
</svg>
