<svg width="24" height="24" viewBox="0 0 24 24" fill="none" xmlns="http://www.w3.org/2000/svg">
<path d="M0 4C0 1.79086 1.79086 0 4 0H20C22.2091 0 24 1.79086 24 4V20C24 22.2091 22.2091 24 20 24H4C1.79086 24 0 22.2091 0 20V4Z" fill="#2F93E1"/>
<path d="M16.7485 6.51878H13.7205C13.5995 6.15903 13.3685 5.84635 13.0603 5.62484C12.7521 5.40334 12.3821 5.28418 12.0025 5.28418C11.623 5.28418 11.253 5.40334 10.9447 5.62484C10.6365 5.84635 10.4056 6.15903 10.2846 6.51878H7.37431C7.27132 6.50388 7.16634 6.511 7.0663 6.53965C6.96626 6.56831 6.87343 6.61785 6.79395 6.68502C6.71446 6.75219 6.65012 6.83544 6.60518 6.9293C6.56023 7.02316 6.5357 7.12548 6.5332 7.22952V18.0041C6.53375 18.098 6.55279 18.1909 6.58923 18.2774C6.62567 18.364 6.6788 18.4425 6.74558 18.5085C6.81236 18.5745 6.89148 18.6267 6.97843 18.6621C7.06539 18.6975 7.15846 18.7154 7.25235 18.7149H16.7485C16.8424 18.7154 16.9355 18.6975 17.0224 18.6621C17.1094 18.6267 17.1885 18.5745 17.2553 18.5085C17.3221 18.4425 17.3752 18.364 17.4116 18.2774C17.4481 18.1909 17.4671 18.098 17.4676 18.0041V7.22952C17.4671 7.13563 17.4481 7.04277 17.4116 6.95624C17.3752 6.86971 17.3221 6.7912 17.2553 6.7252C17.1885 6.6592 17.1094 6.60701 17.0224 6.57159C16.9355 6.53617 16.8424 6.51822 16.7485 6.51878V6.51878ZM9.1785 7.78044C9.1785 7.66891 9.22281 7.56194 9.30167 7.48307C9.38054 7.4042 9.48751 7.35989 9.59905 7.35989H11.0458V7.09494C11.0458 6.83673 11.1483 6.58909 11.3309 6.40651C11.5135 6.22393 11.7611 6.12135 12.0193 6.12135C12.2776 6.12135 12.5252 6.22393 12.7078 6.40651C12.8904 6.58909 12.9929 6.83673 12.9929 7.09494V7.38092H14.4396C14.5512 7.38092 14.6582 7.42522 14.737 7.50409C14.8159 7.58296 14.8602 7.68993 14.8602 7.80147V8.55847H9.16167L9.1785 7.78044ZM15.285 11.6622L11.4495 15.4976L9.24579 13.2939C9.13425 13.1824 9.07159 13.0311 9.07159 12.8734C9.07159 12.7156 9.13425 12.5644 9.24579 12.4528C9.35732 12.3413 9.5086 12.2786 9.66634 12.2786C9.82408 12.2786 9.97536 12.3413 10.0869 12.4528L11.4579 13.8238L14.4607 10.8211C14.5722 10.7095 14.7235 10.6469 14.8812 10.6469C15.039 10.6469 15.1902 10.7095 15.3018 10.8211C15.4133 10.9326 15.476 11.0839 15.476 11.2416C15.476 11.3994 15.4133 11.5506 15.3018 11.6622H15.285Z" fill="white"/>
</svg>
