<svg width="24" height="24" viewBox="0 0 24 24" fill="none" xmlns="http://www.w3.org/2000/svg">
<path d="M0 4C0 1.79086 1.79086 0 4 0H20C22.2091 0 24 1.79086 24 4V20C24 22.2091 22.2091 24 20 24H4C1.79086 24 0 22.2091 0 20V4Z" fill="#FFA438"/>
<path d="M17.7927 7.94342H15.1592V7.43633C15.1587 7.03299 14.9921 6.64631 14.6959 6.36111C14.3998 6.07592 13.9982 5.91549 13.5794 5.91504H10.4198C10.0009 5.91549 9.59936 6.07592 9.30319 6.36111C9.00703 6.64631 8.84043 7.03299 8.83996 7.43633V7.94342H6.20749C5.92827 7.94372 5.66056 8.05067 5.46312 8.2408C5.26567 8.43094 5.15461 8.68872 5.1543 8.95761V17.0711C5.15461 17.34 5.26567 17.5978 5.46312 17.7879C5.66056 17.9781 5.92827 18.085 6.20749 18.0853H17.7927C18.0719 18.085 18.3396 17.9781 18.5371 17.7879C18.7345 17.5978 18.8456 17.34 18.8459 17.0711V8.95761C18.8456 8.68872 18.7345 8.43094 18.5371 8.2408C18.3396 8.05067 18.0719 7.94372 17.7927 7.94342ZM9.89316 10.4789C9.89316 10.6134 9.83768 10.7424 9.73892 10.8375C9.64017 10.9326 9.50623 10.986 9.36656 10.986C9.2269 10.986 9.09296 10.9326 8.9942 10.8375C8.89544 10.7424 8.83996 10.6134 8.83996 10.4789V9.46471C8.83996 9.33022 8.89544 9.20123 8.9942 9.10614C9.09296 9.01104 9.2269 8.95761 9.36656 8.95761C9.50623 8.95761 9.64017 9.01104 9.73892 9.10614C9.83768 9.20123 9.89316 9.33022 9.89316 9.46471V10.4789ZM9.89316 7.43633C9.89334 7.30189 9.94887 7.173 10.0476 7.07794C10.1463 6.98288 10.2802 6.9294 10.4198 6.92923H13.5794C13.719 6.9294 13.8528 6.98288 13.9515 7.07794C14.0502 7.173 14.1058 7.30189 14.106 7.43633V7.94342H9.89316V7.43633ZM15.1592 10.4789C15.1592 10.6134 15.1037 10.7424 15.0049 10.8375C14.9062 10.9326 14.7722 10.986 14.6326 10.986C14.4929 10.986 14.3589 10.9326 14.2602 10.8375C14.1614 10.7424 14.106 10.6134 14.106 10.4789V9.46471C14.106 9.33022 14.1614 9.20123 14.2602 9.10614C14.3589 9.01104 14.4929 8.95761 14.6326 8.95761C14.7722 8.95761 14.9062 9.01104 15.0049 9.10614C15.1037 9.20123 15.1592 9.33022 15.1592 9.46471V10.4789Z" fill="white"/>
</svg>
