<svg width="24" height="24" viewBox="0 0 24 24" fill="none" xmlns="http://www.w3.org/2000/svg">
<path d="M0 4C0 1.79086 1.79086 0 4 0H20C22.2091 0 24 1.79086 24 4V20C24 22.2091 22.2091 24 20 24H4C1.79086 24 0 22.2091 0 20V4Z" fill="#2F93E1"/>
<path fill-rule="evenodd" clip-rule="evenodd" d="M18.6977 16.6532C18.2579 16.8055 17.3893 17.1211 16.3906 15.4316C15.3919 13.7439 14.0717 14.1361 14.0717 14.1361C13.9977 14.1488 13.9347 14.1735 13.8692 14.1956C12.3788 12.0732 8.18757 7.4506 7.81837 7.08056C7.2884 6.55144 6.3986 6.05464 5.65425 6.83471C4.95415 7.56799 5.31313 8.525 5.8431 9.05498C6.2157 9.42757 10.8638 13.6401 12.9854 15.1254C12.9504 15.2174 12.9286 15.3139 12.9207 15.4121C12.9207 18.5136 16.0929 18.3495 16.7488 18.2295C17.9184 18.0177 19.1375 16.5026 18.6977 16.6532Z" fill="white"/>
<path fill-rule="evenodd" clip-rule="evenodd" d="M8.03958 12.1768L7.33012 12.8871C7.33012 12.8871 5.36336 17.4127 5.2298 17.7785C5.12347 18.0677 5.49011 18.4343 5.74361 18.3101C6.15193 18.1085 10.6265 16.1664 10.6265 16.1664L11.6201 15.1694C10.3938 14.2134 9.20967 13.2006 8.03958 12.1768Z" fill="white"/>
<path fill-rule="evenodd" clip-rule="evenodd" d="M13.9293 12.8528L17.5541 9.21613C17.9811 8.78909 18.0049 8.1732 17.5472 7.71639L15.8416 6.02355C15.3831 5.56674 14.6652 5.54292 14.239 5.9691L10.9375 9.27653C11.96 10.4458 12.9776 11.6249 13.9293 12.8528Z" fill="white"/>
</svg>
