<svg width="24" height="24" viewBox="0 0 24 24" fill="none" xmlns="http://www.w3.org/2000/svg">
<path d="M0 4C0 1.79086 1.79086 0 4 0H20C22.2091 0 24 1.79086 24 4V20C24 22.2091 22.2091 24 20 24H4C1.79086 24 0 22.2091 0 20V4Z" fill="#FF5A50"/>
<path fill-rule="evenodd" clip-rule="evenodd" d="M18.6233 4.56852C18.576 4.45062 18.485 4.35551 18.3693 4.30297C18.2536 4.25044 18.1221 4.24452 18.0022 4.28646C17.8823 4.3284 17.7831 4.41496 17.7254 4.52814C17.6677 4.64132 17.6558 4.77239 17.6922 4.8941C18.7913 6.72113 18.5776 7.88393 17.4303 8.75542L16.9668 8.09119C16.811 7.86843 16.4625 7.68319 16.1916 7.67993L13.5902 7.69135C13.2724 7.70095 12.9631 7.79625 12.6951 7.96716L5.02955 13.3422C4.85125 13.4676 4.72993 13.6586 4.69216 13.8734C4.65438 14.0881 4.70323 14.309 4.828 14.4878L8.3115 19.472C8.57262 19.8432 8.9896 19.7983 9.3617 19.5389L17.0272 14.1631C17.2475 14.0072 17.5021 13.671 17.5919 13.414L18.4062 10.8476C18.496 10.5914 18.4413 10.2006 18.2855 9.97779L18.0031 9.57305C19.5437 8.3923 19.7093 6.38963 18.6233 4.56852ZM16.6886 11.3886C16.5473 11.4875 16.388 11.5576 16.2197 11.5948C16.0514 11.6321 15.8774 11.6358 15.7077 11.6058C15.5379 11.5758 15.3758 11.5126 15.2305 11.4199C15.0851 11.3272 14.9595 11.2068 14.8607 11.0655C14.6607 10.7796 14.5824 10.4261 14.6428 10.0825C14.7032 9.73887 14.8975 9.43327 15.183 9.23278C15.4069 9.07596 15.6741 8.99299 15.9474 8.99548C16.2207 8.99796 16.4864 9.08578 16.7073 9.24665C16.4854 9.38047 16.3328 9.45881 16.3042 9.47105C16.2031 9.51928 16.1213 9.60044 16.0723 9.70122C16.0233 9.80201 16.01 9.91644 16.0346 10.0258C16.0591 10.1351 16.1201 10.2329 16.2075 10.303C16.2949 10.3732 16.4035 10.4116 16.5156 10.4119C16.5857 10.4119 16.6576 10.3956 16.7253 10.3638C16.8836 10.2887 17.0533 10.1997 17.2304 10.0945C17.2711 10.3393 17.2419 10.5907 17.146 10.8197C17.0502 11.0486 16.8916 11.2459 16.6886 11.3886ZM10.9392 11.1401C11.2465 10.9182 11.6755 10.9874 11.8974 11.2946L13.488 13.4969C13.7099 13.8041 13.6407 14.2331 13.3335 14.4551C13.0262 14.677 12.5972 14.6078 12.3753 14.3005L10.7847 12.0983C10.5628 11.791 10.632 11.362 10.9392 11.1401ZM9.50346 12.952C9.28154 12.6448 8.85255 12.5756 8.5453 12.7975C8.23804 13.0194 8.16886 13.4484 8.39078 13.7557L9.98138 15.9579C10.2033 16.2652 10.6323 16.3344 10.9395 16.1124C11.2468 15.8905 11.316 15.4615 11.0941 15.1543L9.50346 12.952Z" fill="white"/>
</svg>
