<svg width="24" height="24" viewBox="0 0 24 24" fill="none" xmlns="http://www.w3.org/2000/svg">
<path d="M0 4C0 1.79086 1.79086 0 4 0H20C22.2091 0 24 1.79086 24 4V20C24 22.2091 22.2091 24 20 24H4C1.79086 24 0 22.2091 0 20V4Z" fill="#334866"/>
<path d="M16.4622 17.5H14.3963C14.1596 17.5 13.9326 17.406 13.7652 17.2386C13.5978 17.0712 13.5038 16.8442 13.5038 16.6075V13.9299H10.7188V16.6075C10.7188 16.8442 10.6247 17.0712 10.4573 17.2386C10.29 17.406 10.0629 17.5 9.82623 17.5H7.53705C7.30034 17.5 7.07332 17.406 6.90594 17.2386C6.73856 17.0712 6.64453 16.8442 6.64453 16.6075V11.4476C6.64457 11.3238 6.67038 11.2013 6.72032 11.088C6.77026 10.9747 6.84323 10.873 6.9346 10.7894L11.3972 6.734C11.5617 6.58348 11.7766 6.5 11.9996 6.5C12.2226 6.5 12.4376 6.58348 12.6021 6.734L17.0647 10.7894C17.156 10.873 17.229 10.9747 17.279 11.088C17.3289 11.2013 17.3547 11.3238 17.3547 11.4476V16.6075C17.3547 16.8442 17.2607 17.0712 17.0933 17.2386C16.926 17.406 16.6989 17.5 16.4622 17.5Z" fill="white"/>
</svg>
