<svg width="20" height="20" viewBox="0 0 20 20" fill="none" xmlns="http://www.w3.org/2000/svg">
<circle cx="10" cy="10" r="10" fill="#FFA438"/>
<path fill-rule="evenodd" clip-rule="evenodd" d="M8.77197 10.6635C8.77197 11.3539 9.33162 11.9135 10.022 11.9135C10.7123 11.9135 11.272 11.3539 11.272 10.6635L11.272 5.38574C11.272 4.69539 10.7123 4.13574 10.022 4.13574C9.33162 4.13574 8.77197 4.69539 8.77197 5.38574V10.6635ZM10.022 16.0802C10.7123 16.0802 11.272 15.5206 11.272 14.8302C11.272 14.1399 10.7123 13.5802 10.022 13.5802C9.33162 13.5802 8.77197 14.1399 8.77197 14.8302C8.77197 15.5206 9.33162 16.0802 10.022 16.0802Z" fill="white"/>
</svg>
