<svg width="20" height="20" viewBox="0 0 20 20" fill="none" xmlns="http://www.w3.org/2000/svg">
<path d="M10 3.25C11.335 3.25 12.6401 3.64588 13.7501 4.38758C14.8601 5.12928 15.7253 6.18348 16.2362 7.41689C16.7471 8.65029 16.8807 10.0075 16.6203 11.3169C16.3598 12.6262 15.717 13.829 14.773 14.773C13.829 15.717 12.6262 16.3598 11.3169 16.6203C10.0075 16.8807 8.65029 16.7471 7.41689 16.2362C6.18348 15.7253 5.12928 14.8601 4.38758 13.7501C3.64588 12.6401 3.25 11.335 3.25 10C3.25 8.20979 3.96116 6.4929 5.22703 5.22703C6.4929 3.96116 8.20979 3.25 10 3.25Z" stroke="#C4CDDF" stroke-width="1.5"/>
<path d="M10.0541 9.46961V9.75829L10.3041 9.90263L13.4065 11.6938C13.4065 11.6938 13.4065 11.6938 13.4066 11.6938C13.4467 11.717 13.4761 11.7552 13.4881 11.8C13.5001 11.8449 13.4938 11.8926 13.4706 11.9328C13.4474 11.973 13.4092 12.0023 13.3643 12.0143C13.3195 12.0263 13.2717 12.0201 13.2315 11.9968L10.1191 10.1999C10.1121 10.1955 10.1055 10.1906 10.0992 10.1853L9.99122 10.0934L9.85108 10.0718C9.8102 10.0655 9.77292 10.0448 9.74596 10.0134C9.71907 9.98211 9.70422 9.94223 9.7041 9.90097V6.30146C9.7041 6.25505 9.72254 6.21054 9.75536 6.17772C9.78818 6.1449 9.83269 6.12646 9.8791 6.12646C9.92551 6.12646 9.97003 6.1449 10.0028 6.17772C10.0357 6.21054 10.0541 6.25505 10.0541 6.30146V9.46961Z" stroke="#C4CDDF"/>
</svg>
